<svg id="follow_x5F_button" enable-background="new 0 0 300 300" height="512" viewBox="0 0 300 300" width="512" xmlns="http://www.w3.org/2000/svg"><g><circle cx="152" cy="136.488" fill="#e5efef" r="86"/><g><path d="m259.101 154.488h-178.202c-6.019 0-10.899-4.88-10.899-10.899v-38.203c0-6.019 4.88-10.899 10.899-10.899h178.203c6.019 0 10.899 4.88 10.899 10.899v38.203c-.001 6.02-4.881 10.899-10.9 10.899z" fill="#02eae6"/><path d="m259.101 158.488h-178.202c-8.215 0-14.899-6.684-14.899-14.898v-38.203c0-8.215 6.684-14.898 14.899-14.898h178.202c8.215 0 14.899 6.684 14.899 14.898v38.203c0 8.215-6.684 14.898-14.899 14.898zm-178.202-60c-3.804 0-6.899 3.095-6.899 6.898v38.203c0 3.804 3.095 6.898 6.899 6.898h178.202c3.804 0 6.899-3.095 6.899-6.898v-38.203c0-3.804-3.095-6.898-6.899-6.898z" fill="#4c241d"/></g><g><path d="m247.101 178.488h-206.202c-6.019 0-10.899-4.88-10.899-10.899v-50.203c0-6.019 4.88-10.899 10.899-10.899h206.203c6.019 0 10.899 4.88 10.899 10.899v50.203c-.001 6.02-4.881 10.899-10.9 10.899z" fill="#fff"/><path d="m247.101 182.488h-206.202c-8.215 0-14.899-6.684-14.899-14.898v-50.203c0-8.215 6.684-14.898 14.899-14.898h206.202c8.215 0 14.899 6.684 14.899 14.898v50.203c0 8.215-6.684 14.898-14.899 14.898zm-206.202-72c-3.804 0-6.899 3.095-6.899 6.898v50.203c0 3.804 3.095 6.898 6.899 6.898h206.202c3.804 0 6.899-3.095 6.899-6.898v-50.203c0-3.804-3.095-6.898-6.899-6.898z" fill="#4c241d"/></g><g fill="#4c241d"><path d="m54 162.488c-2.209 0-4-1.791-4-4v-32c0-2.209 1.791-4 4-4h16c2.209 0 4 1.791 4 4s-1.791 4-4 4h-12v28c0 2.209-1.791 4-4 4z"/><path d="m134 162.488h-16c-2.209 0-4-1.791-4-4v-32c0-2.209 1.791-4 4-4s4 1.791 4 4v28h12c2.209 0 4 1.791 4 4s-1.791 4-4 4z"/><path d="m162 162.488h-16c-2.209 0-4-1.791-4-4v-32c0-2.209 1.791-4 4-4s4 1.791 4 4v28h12c2.209 0 4 1.791 4 4s-1.791 4-4 4z"/><path d="m70 146.488h-12.444c-2.209 0-4-1.791-4-4s1.791-4 4-4h12.444c2.209 0 4 1.791 4 4s-1.791 4-4 4z"/><path d="m94 162.488c-6.617 0-12-5.383-12-12v-16c0-6.617 5.383-12 12-12s12 5.383 12 12v16c0 6.617-5.383 12-12 12zm0-32c-2.206 0-4 1.794-4 4v16c0 2.206 1.794 4 4 4s4-1.794 4-4v-16c0-2.206-1.794-4-4-4z"/><path d="m182 162.488c-6.617 0-12-5.383-12-12v-16c0-6.617 5.383-12 12-12s12 5.383 12 12v16c0 6.617-5.383 12-12 12zm0-32c-2.206 0-4 1.794-4 4v16c0 2.206 1.794 4 4 4s4-1.794 4-4v-16c0-2.206-1.794-4-4-4z"/><path d="m233.998 162.488c-1.65 0-3.153-1.021-3.743-2.596l-7.49-19.972-4.885 19.537c-.445 1.781-2.045 3.03-3.88 3.03s-3.436-1.249-3.88-3.03l-8-32c-.536-2.143.767-4.314 2.91-4.851 2.147-.531 4.315.768 4.851 2.911l4.12 16.478 4.12-16.478c.424-1.699 1.905-2.924 3.653-3.023 1.744-.111 3.358.948 3.973 2.589l6.299 16.798 1.986-15.89c.274-2.192 2.273-3.756 4.465-3.473 2.192.273 3.747 2.272 3.473 4.465l-4 32c-.229 1.826-1.673 3.261-3.501 3.477-.158.019-.316.028-.471.028z"/></g><g><path d="m198.591 224.175-4.375-54.55 50.449 25.019-31.341 4.793z" fill="#fff"/><path d="m198.592 228.175c-.301 0-.604-.034-.907-.104-1.696-.394-2.942-1.84-3.081-3.576l-4.375-54.55c-.115-1.436.551-2.823 1.745-3.632 1.193-.808 2.728-.912 4.02-.271l50.449 25.019c1.563.775 2.443 2.475 2.175 4.199-.269 1.724-1.623 3.075-3.348 3.339l-29.474 4.508-13.767 23.116c-.733 1.228-2.05 1.952-3.437 1.952zm.176-51.827 2.807 34.999 8.312-13.957c.611-1.026 1.65-1.727 2.832-1.907l18.827-2.879z" fill="#4c241d"/></g><path d="m242.859 249.512c-1.318 0-2.608-.65-3.372-1.843l-29.531-46.074c-1.192-1.859-.651-4.334 1.209-5.525 1.861-1.193 4.334-.651 5.526 1.209l29.531 46.074c1.192 1.859.651 4.334-1.209 5.525-.667.429-1.415.634-2.154.634z" fill="#4c241d"/><circle cx="104" cy="56.488" fill="#4c241d" r="4.787"/><circle cx="84" cy="56.488" fill="#4c241d" r="4.787"/><circle cx="64" cy="56.488" fill="#4c241d" r="4.787"/></g></svg>